<svg width="104" height="86" viewBox="0 0 104 86" fill="none" xmlns="http://www.w3.org/2000/svg">
<rect width="104" height="86" fill="#F5F5F5"/>
<g filter="url(#filter0_f_0_1)">
<rect x="5" y="5" width="94" height="76" fill="#CEF13F"/>
<rect x="4.5" y="4.5" width="95" height="77" stroke="black"/>
<rect x="4.5" y="4.5" width="95" height="77" stroke="#38ECC1"/>
</g>
<path d="M27.3301 47.5195V38.4766L24.3027 35.9961C24.778 35.9896 25.3118 35.9863 25.9043 35.9863C26.4967 35.9798 27.1087 35.9733 27.7402 35.9668C28.3717 35.9603 29.0033 35.957 29.6348 35.957C30.2663 35.9505 30.862 35.9473 31.4219 35.9473C31.9818 35.9408 32.4863 35.9375 32.9355 35.9375C33.3848 35.931 33.7428 35.9277 34.0098 35.9277C34.6283 35.9277 35.276 35.9408 35.9531 35.9668C36.6302 35.9928 37.2943 36.0514 37.9453 36.1426C38.6029 36.2272 39.2246 36.3574 39.8105 36.5332C40.403 36.7025 40.9206 36.9336 41.3633 37.2266C41.8125 37.513 42.1673 37.8711 42.4277 38.3008C42.6947 38.724 42.8281 39.235 42.8281 39.834C42.8281 40.3483 42.7402 40.7845 42.5645 41.1426C42.3887 41.5007 42.1348 41.8001 41.8027 42.041C41.4707 42.2819 41.0638 42.4707 40.582 42.6074C40.1068 42.7376 39.5632 42.8353 38.9512 42.9004C39.6673 42.972 40.3184 43.0794 40.9043 43.2227C41.4902 43.3659 41.9883 43.5645 42.3984 43.8184C42.8151 44.0658 43.1374 44.3815 43.3652 44.7656C43.5931 45.1497 43.707 45.6152 43.707 46.1621C43.707 46.7611 43.5736 47.2754 43.3066 47.7051C43.0462 48.1283 42.6914 48.4863 42.2422 48.7793C41.7995 49.0658 41.2819 49.2969 40.6895 49.4727C40.1035 49.6419 39.4818 49.7721 38.8242 49.8633C38.1732 49.9479 37.5091 50.0033 36.832 50.0293C36.1549 50.0553 35.5072 50.0684 34.8887 50.0684C34.5957 50.0684 34.2018 50.0651 33.707 50.0586C33.2188 50.0586 32.6686 50.0553 32.0566 50.0488C31.4447 50.0488 30.7936 50.0456 30.1035 50.0391C29.4199 50.0391 28.7331 50.0358 28.043 50.0293C27.3594 50.0228 26.6921 50.0163 26.041 50.0098C25.3965 50.0098 24.8138 50.0065 24.293 50L27.3301 47.5195ZM33.707 42.002C33.9089 42.002 34.1432 41.9987 34.4102 41.9922C34.6771 41.9857 34.9538 41.9661 35.2402 41.9336C35.5267 41.8945 35.8066 41.8392 36.0801 41.7676C36.36 41.6895 36.6074 41.582 36.8223 41.4453C37.0436 41.3021 37.2194 41.123 37.3496 40.9082C37.4863 40.6934 37.5547 40.4297 37.5547 40.1172C37.5547 39.6615 37.4342 39.2969 37.1934 39.0234C36.959 38.75 36.653 38.5417 36.2754 38.3984C35.9043 38.2487 35.4909 38.151 35.0352 38.1055C34.5794 38.0599 34.1367 38.0371 33.707 38.0371H32.4766V42.002H33.707ZM34.3906 47.959C34.6836 47.959 34.9863 47.9557 35.2988 47.9492C35.6113 47.9362 35.9173 47.9069 36.2168 47.8613C36.5163 47.8158 36.7995 47.7507 37.0664 47.666C37.3398 47.5749 37.5775 47.4479 37.7793 47.2852C37.9811 47.1224 38.1406 46.9206 38.2578 46.6797C38.375 46.4388 38.4336 46.1458 38.4336 45.8008C38.4336 45.4297 38.3522 45.1172 38.1895 44.8633C38.0267 44.6094 37.776 44.4043 37.4375 44.248C37.1055 44.0853 36.6855 43.9714 36.1777 43.9062C35.6699 43.8346 35.0742 43.7988 34.3906 43.7988H32.4766V47.959H34.3906ZM47.5449 47.5293V38.8281L44.6348 35.9961H51.7051L56.5977 43.5352L61.002 35.9961H68.5117L65.4648 38.3789V47.5195L68.3066 50H57.7793L60.5137 47.5195V42.4707L56.3145 50H54.8984L50.2012 42.5488V47.5293L53.1406 50H44.9961L47.5449 47.5293ZM71.5195 38.4766L69.2539 35.9961H76.5684V47.5195L78.834 50H71.5195V38.4766Z" fill="#48ABC0"/>
<defs>
<filter id="filter0_f_0_1" x="0" y="0" width="104" height="86" filterUnits="userSpaceOnUse" color-interpolation-filters="sRGB">
<feFlood flood-opacity="0" result="BackgroundImageFix"/>
<feBlend mode="normal" in="SourceGraphic" in2="BackgroundImageFix" result="shape"/>
<feGaussianBlur stdDeviation="2" result="effect1_foregroundBlur_0_1"/>
</filter>
</defs>
</svg>
